<svg width="26" height="26" viewBox="0 0 26 26" fill="none" xmlns="http://www.w3.org/2000/svg">
  <path d="M8.66667 15.1673C8.66667 13.7307 9.23735 12.353 10.2532 11.3372C11.269 10.3213 12.6467 9.75065 14.0833 9.75065C14.625 9.75065 14.8494 9.43335 14.8494 9.43335C15.0525 9.23019 15.1667 8.95464 15.1667 8.66732C15.1667 8.38 15.0525 8.10445 14.8494 7.90129C14.8494 7.90129 14.5911 7.58398 14.0833 7.58398C12.6467 7.58398 11.269 7.0133 10.2532 5.99748C9.23735 4.98166 8.66667 3.60391 8.66667 2.16732C8.66667 1.62565 8.34937 1.40129 8.34937 1.40129C8.1462 1.19812 7.87065 1.08398 7.58333 1.08398C7.29602 1.08398 6.99577 1.19812 6.79261 1.40129C6.79261 1.40129 6.5 1.62565 6.5 2.16732C6.5 3.60391 5.92932 4.98166 4.91349 5.99748C3.89767 7.0133 2.51992 7.58398 1.08333 7.58398C0.585035 7.58398 0.317301 7.90129 0.317301 7.90129C0 8.12565 0 8.38 0 8.66732C0 8.95464 0.114137 9.23019 0.317301 9.43335C0.317301 9.43335 0.668721 9.75065 1.08333 9.75065C2.51992 9.75065 3.89767 10.3213 4.91349 11.3372C5.92932 12.353 6.5 13.7307 6.5 15.1673C6.5 15.709 6.8173 15.9334 6.8173 15.9334C7.02047 16.1365 7.29602 16.2507 7.58333 16.2507C7.87065 16.2507 8.1462 16.1365 8.34937 15.9334C8.34937 15.9334 8.66667 15.709 8.66667 15.1673Z" fill="#539DFE"></path>
  <path d="M15.1666 19.5C14.5919 19.5 14.0408 19.2717 13.6345 18.8654C13.2282 18.4591 12.9999 17.908 12.9999 17.3333C12.9999 17.046 12.8858 16.7705 12.6826 16.5673C12.4795 16.3641 12.2039 16.25 11.9166 16.25C11.6293 16.25 11.3537 16.3641 11.1506 16.5673C10.9474 16.7705 10.8333 17.046 10.8333 17.3333C10.8333 17.908 10.605 18.4591 10.1986 18.8654C9.79232 19.2717 9.24122 19.5 8.66659 19.5C8.37927 19.5 8.10372 19.6141 7.90055 19.8173C7.69739 20.0205 7.58325 20.296 7.58325 20.5833C7.58325 20.8707 7.69739 21.1462 7.90055 21.3494C8.10372 21.5525 8.37927 21.6667 8.66659 21.6667C9.24122 21.6667 9.79232 21.8949 10.1986 22.3013C10.605 22.7076 10.8333 23.2587 10.8333 23.8333C10.8333 24.1207 10.9474 24.3962 11.1506 24.5994C11.3537 24.8025 11.6293 24.9167 11.9166 24.9167C12.2039 24.9167 12.4795 24.8025 12.6826 24.5994C12.8858 24.3962 12.9999 24.1207 12.9999 23.8333C12.9999 23.2587 13.2282 22.7076 13.6345 22.3013C14.0408 21.8949 14.5919 21.6667 15.1666 21.6667C15.4539 21.6667 15.7295 21.5525 15.9326 21.3494C16.1358 21.1462 16.2499 20.8707 16.2499 20.5833C16.2499 20.296 16.1358 20.0205 15.9326 19.8173C15.7295 19.6141 15.4539 19.5 15.1666 19.5Z" fill="#0AC9CA"></path>
  <path d="M25.0069 11.4653C23.9534 11.4653 22.943 11.0468 22.1981 10.3018C21.4531 9.5569 21.0346 8.54655 21.0346 7.49306C21.0346 7.22968 20.93 6.97709 20.7438 6.79086C20.5575 6.60463 20.305 6.5 20.0416 6.5C19.7782 6.5 19.5256 6.60463 19.3394 6.79086C19.1532 6.97709 19.0485 7.22968 19.0485 7.49306C19.0485 8.54655 18.63 9.5569 17.8851 10.3018C17.1402 11.0468 16.1298 11.4653 15.0763 11.4653C14.8129 11.4653 14.5603 11.5699 14.3741 11.7561C14.1879 11.9424 14.0833 12.195 14.0833 12.4583C14.0833 12.7217 14.1879 12.9743 14.3741 13.1605C14.5603 13.3468 14.8129 13.4514 15.0763 13.4514C16.1298 13.4514 17.1402 13.8699 17.8851 14.6148C18.63 15.3598 19.0485 16.3701 19.0485 17.4236C19.0485 17.687 19.1532 17.9396 19.3394 18.1258C19.5256 18.312 19.7782 18.4167 20.0416 18.4167C20.305 18.4167 20.5575 18.312 20.7438 18.1258C20.93 17.9396 21.0346 17.687 21.0346 17.4236C21.0346 16.3701 21.4531 15.3598 22.1981 14.6148C22.943 13.8699 23.9534 13.4514 25.0069 13.4514C25.2702 13.4514 25.5228 13.3468 25.7091 13.1605C25.8953 12.9743 25.9999 12.7217 25.9999 12.4583C25.9999 12.195 25.8953 11.9424 25.7091 11.7561C25.5228 11.5699 25.2702 11.4653 25.0069 11.4653Z" fill="#FF9A35"></path>
</svg> 